# This file uses centimeters as units for non-parametric coordinates.

mtllib smallRoom_mirror.mtl
g default
v -0.500000 -0.500000 0.500000
v -0.166667 -0.500000 0.500000
v 0.166667 -0.500000 0.500000
v 0.500000 -0.500000 0.500000
v -0.500000 -0.500000 0.166667
v -0.166667 -0.500000 0.166667
v 0.166667 -0.500000 0.166667
v 0.500000 -0.500000 0.166667
v -0.500000 -0.500000 -0.166667
v -0.166667 -0.500000 -0.166667
v 0.166667 -0.500000 -0.166667
v 0.500000 -0.500000 -0.166667
v -0.500000 -0.500000 -0.500121
v -0.166667 -0.500000 -0.500182
v 0.166667 -0.500000 -0.500182
v 0.500000 -0.500000 -0.500121
v -0.499914 0.500329 0.500000
v -0.500000 0.166667 0.500000
v -0.500000 -0.166667 0.500000
v -0.499914 0.500329 0.166667
v -0.500000 0.166667 0.166667
v -0.500000 -0.166667 0.166667
v -0.499914 0.500329 -0.166667
v -0.500000 0.166667 -0.166667
v -0.500000 -0.166667 -0.166667
v -0.499943 0.500220 -0.500121
v -0.500000 0.166667 -0.500182
v -0.500000 -0.166667 -0.500182
v 0.500057 0.500220 -0.500121
v 0.500000 0.166667 -0.500182
v 0.500000 -0.166667 -0.500182
v 0.500086 0.500329 -0.166667
v 0.500000 0.166667 -0.166667
v 0.500000 -0.166667 -0.166667
v 0.500086 0.500329 0.166667
v 0.500000 0.166667 0.166667
v 0.500000 -0.166667 0.166667
v 0.500086 0.500329 0.500000
v 0.500000 0.166667 0.500000
v 0.500000 -0.166667 0.500000
v -0.166581 0.500329 -0.500182
v -0.166667 0.166667 -0.500363
v -0.166667 -0.166667 -0.500363
v 0.166752 0.500329 -0.500182
v 0.166667 0.166667 -0.500363
v 0.166667 -0.166667 -0.500363
v 0.166838 0.500659 0.500000
v -0.166495 0.500659 0.500000
v 0.166838 0.500659 0.166667
v -0.166495 0.500659 0.166667
v 0.166838 0.500659 -0.166667
v -0.166495 0.500659 -0.166667
v -0.574571 -0.574613 0.574591
v -0.191528 -0.574613 0.574591
v -0.191528 -0.574613 0.191548
v -0.574571 -0.574613 0.191548
v 0.191515 -0.574613 0.574591
v 0.191515 -0.574613 0.191548
v 0.574558 -0.574613 0.574591
v 0.574558 -0.574613 0.191548
v -0.191528 -0.574613 -0.191494
v -0.574571 -0.574613 -0.191494
v 0.191515 -0.574613 -0.191494
v 0.574558 -0.574613 -0.191494
v -0.191528 -0.574613 -0.574746
v -0.574571 -0.574613 -0.574676
v 0.191515 -0.574613 -0.574746
v 0.574558 -0.574613 -0.574676
v -0.574472 0.574894 0.574591
v -0.574571 0.191472 0.574591
v -0.574571 0.191472 0.191548
v -0.574472 0.574894 0.191548
v -0.574571 -0.191571 0.574591
v -0.574571 -0.191571 0.191548
v -0.574571 0.191472 -0.191494
v -0.574472 0.574894 -0.191494
v -0.574571 -0.191571 -0.191494
v -0.574571 0.191472 -0.574746
v -0.574505 0.574768 -0.574676
v -0.574571 -0.191571 -0.574746
v 0.574623 0.574768 -0.574676
v 0.574558 0.191472 -0.574746
v 0.574558 0.191472 -0.191494
v 0.574656 0.574894 -0.191494
v 0.574558 -0.191571 -0.574746
v 0.574558 -0.191571 -0.191494
v 0.574558 0.191472 0.191549
v 0.574656 0.574894 0.191548
v 0.574558 -0.191571 0.191549
v 0.574558 0.191472 0.574591
v 0.574656 0.574894 0.574591
v 0.574558 -0.191571 0.574591
v -0.191528 0.191472 -0.574955
v -0.191429 0.574894 -0.574746
v -0.191528 -0.191571 -0.574955
v 0.191515 0.191472 -0.574955
v 0.191614 0.574894 -0.574746
v 0.191515 -0.191571 -0.574955
v 0.191712 0.575272 0.574591
v 0.191712 0.575272 0.191548
v -0.191331 0.575272 0.574591
v -0.191331 0.575272 0.191548
v 0.191712 0.575272 -0.191494
v -0.191331 0.575272 -0.191494
vt 0.000000 0.000000
vt 0.000000 0.333333
vt 0.333333 0.333333
vt 0.333333 0.000000
vt 0.666667 0.333333
vt 0.666667 0.000000
vt 1.000000 0.333333
vt 1.000000 0.000000
vt 0.000000 0.666667
vt 0.333333 0.666667
vt 0.666667 0.666667
vt 1.000000 0.666667
vt 0.000000 1.000000
vt 0.333333 1.000000
vt 0.666667 1.000000
vt 1.000000 1.000000
vt 0.000000 0.000000
vt 0.000000 0.333333
vt 0.333333 0.333333
vt 0.333333 0.000000
vt 0.666667 0.333333
vt 0.666667 0.000000
vt 1.000000 0.333333
vt 1.000000 0.000000
vt 0.000000 0.666667
vt 0.333333 0.666667
vt 0.666667 0.666667
vt 1.000000 0.666667
vt 0.000000 1.000000
vt 0.333333 1.000000
vt 0.666667 1.000000
vt 1.000000 1.000000
vt 0.000000 0.000000
vt 0.000000 0.333333
vt 0.333333 0.333333
vt 0.333333 0.000000
vt 0.666667 0.333333
vt 0.666667 0.000000
vt 1.000000 0.333333
vt 1.000000 0.000000
vt 0.000000 0.666667
vt 0.333333 0.666667
vt 0.666667 0.666667
vt 1.000000 0.666667
vt 0.000000 1.000000
vt 0.333333 1.000000
vt 0.666667 1.000000
vt 1.000000 1.000000
vt 0.000000 0.000000
vt 0.000000 0.333333
vt 0.333333 0.333333
vt 0.333333 0.000000
vt 0.666667 0.333333
vt 0.666667 0.000000
vt 1.000000 0.333333
vt 1.000000 0.000000
vt 0.000000 0.666667
vt 0.333333 0.666667
vt 0.666667 0.666667
vt 1.000000 0.666667
vt 0.000000 1.000000
vt 0.333333 1.000000
vt 0.666667 1.000000
vt 1.000000 1.000000
vt 0.000000 0.000000
vt 0.000000 0.333333
vt 0.333333 0.333333
vt 0.333333 0.000000
vt 0.666667 0.333333
vt 0.666667 0.000000
vt 1.000000 0.333333
vt 1.000000 0.000000
vt 0.000000 0.666667
vt 0.333333 0.666667
vt 0.666667 0.666667
vt 1.000000 0.666667
vt 0.000000 1.000000
vt 0.333333 1.000000
vt 0.666667 1.000000
vt 1.000000 1.000000
vt 0.000000 0.000000
vt 0.333333 0.000000
vt 0.333333 0.333333
vt 0.000000 0.333333
vt 0.666667 0.000000
vt 0.666667 0.333333
vt 1.000000 0.000000
vt 1.000000 0.333333
vt 0.333333 0.666667
vt 0.000000 0.666667
vt 0.666667 0.666667
vt 1.000000 0.666667
vt 0.333333 1.000000
vt 0.000000 1.000000
vt 0.666667 1.000000
vt 1.000000 1.000000
vt 0.000000 0.000000
vt 0.333333 0.000000
vt 0.333333 0.333333
vt 0.000000 0.333333
vt 0.666667 0.000000
vt 0.666667 0.333333
vt 1.000000 0.000000
vt 1.000000 0.333333
vt 0.333333 0.666667
vt 0.000000 0.666667
vt 0.666667 0.666667
vt 1.000000 0.666667
vt 0.333333 1.000000
vt 0.000000 1.000000
vt 0.666667 1.000000
vt 1.000000 1.000000
vt 0.000000 0.000000
vt 0.333333 0.000000
vt 0.333333 0.333333
vt 0.000000 0.333333
vt 0.666667 0.000000
vt 0.666667 0.333333
vt 1.000000 0.000000
vt 1.000000 0.333333
vt 0.333333 0.666667
vt 0.000000 0.666667
vt 0.666667 0.666667
vt 1.000000 0.666667
vt 0.333333 1.000000
vt 0.000000 1.000000
vt 0.666667 1.000000
vt 1.000000 1.000000
vt 0.000000 0.000000
vt 0.333333 0.000000
vt 0.333333 0.333333
vt 0.000000 0.333333
vt 0.666667 0.000000
vt 0.666667 0.333333
vt 1.000000 0.000000
vt 1.000000 0.333333
vt 0.333333 0.666667
vt 0.000000 0.666667
vt 0.666667 0.666667
vt 1.000000 0.666667
vt 0.333333 1.000000
vt 0.000000 1.000000
vt 0.666667 1.000000
vt 1.000000 1.000000
vt 0.000000 0.000000
vt 0.333333 0.000000
vt 0.333333 0.333333
vt 0.000000 0.333333
vt 0.666667 0.000000
vt 0.666667 0.333333
vt 1.000000 0.000000
vt 1.000000 0.333333
vt 0.333333 0.666667
vt 0.000000 0.666667
vt 0.666667 0.666667
vt 1.000000 0.666667
vt 0.333333 1.000000
vt 0.000000 1.000000
vt 0.666667 1.000000
vt 1.000000 1.000000
vt 0.000000 0.000000
vt 0.333333 0.000000
vt 0.666667 0.000000
vt 1.000000 0.000000
vt 0.000000 0.000000
vt 0.333333 0.000000
vt 0.666667 0.000000
vt 1.000000 0.000000
vt 0.333333 1.000000
vt 0.000000 1.000000
vt 0.666667 1.000000
vt 1.000000 1.000000
vt 0.000000 0.000000
vt 0.333333 0.000000
vt 0.666667 0.000000
vt 1.000000 0.000000
vn 0.000000 -1.000000 0.000000
vn 0.000000 -1.000000 0.000000
vn 0.000000 -1.000000 0.000000
vn 0.000000 -1.000000 0.000000
vn 0.000000 -1.000000 0.000000
vn 0.000000 -1.000000 0.000000
vn 0.000000 -1.000000 0.000000
vn 0.000000 -1.000000 0.000000
vn 0.000000 -1.000000 0.000000
vn 0.000000 -1.000000 0.000000
vn 0.000000 -1.000000 0.000000
vn 0.000000 -1.000000 0.000000
vn 0.000000 -1.000000 0.000000
vn 0.000000 -1.000000 0.000000
vn 0.000000 -1.000000 0.000000
vn 0.000000 -1.000000 0.000000
vn 0.000000 -1.000000 0.000000
vn 0.000000 -1.000000 0.000000
vn 0.000000 -1.000000 0.000000
vn 0.000000 -1.000000 0.000000
vn 0.000000 -1.000000 0.000000
vn 0.000000 -1.000000 0.000000
vn 0.000000 -1.000000 0.000000
vn 0.000000 -1.000000 0.000000
vn 0.000000 -1.000000 0.000000
vn 0.000000 -1.000000 0.000000
vn 0.000000 -1.000000 0.000000
vn 0.000000 -1.000000 0.000000
vn 0.000000 -1.000000 0.000000
vn 0.000000 -1.000000 0.000000
vn 0.000000 -1.000000 0.000000
vn 0.000000 -1.000000 0.000000
vn 0.000000 -1.000000 0.000000
vn 0.000000 -1.000000 0.000000
vn 0.000000 -1.000000 0.000000
vn 0.000000 -1.000000 0.000000
vn -1.000000 0.000257 0.000000
vn -1.000000 0.000257 0.000000
vn -1.000000 0.000128 0.000000
vn -1.000000 0.000128 0.000000
vn -1.000000 0.000128 0.000000
vn -1.000000 0.000128 0.000000
vn -1.000000 0.000000 0.000000
vn -1.000000 0.000000 0.000000
vn -1.000000 0.000000 0.000000
vn -1.000000 0.000000 0.000000
vn -1.000000 0.000000 0.000000
vn -1.000000 0.000000 0.000000
vn -1.000000 0.000257 0.000000
vn -1.000000 0.000235 0.000021
vn -1.000000 0.000118 0.000011
vn -1.000000 0.000128 0.000000
vn -1.000000 0.000128 0.000000
vn -1.000000 0.000118 0.000011
vn -1.000000 0.000000 -0.000000
vn -1.000000 0.000000 0.000000
vn -1.000000 0.000000 0.000000
vn -1.000000 0.000000 -0.000000
vn -1.000000 0.000000 -0.000000
vn -1.000000 0.000000 0.000000
vn -1.000000 0.000235 0.000021
vn -1.000000 0.000214 0.000043
vn -1.000000 0.000107 0.000021
vn -1.000000 0.000118 0.000011
vn -1.000000 0.000118 0.000011
vn -1.000000 0.000107 0.000021
vn -1.000000 0.000000 -0.000000
vn -1.000000 0.000000 -0.000000
vn -1.000000 0.000000 -0.000000
vn -1.000000 0.000000 -0.000000
vn -1.000000 0.000000 -0.000000
vn -1.000000 0.000000 -0.000000
vn 1.000000 -0.000214 -0.000043
vn 1.000000 -0.000235 -0.000021
vn 1.000000 -0.000118 -0.000011
vn 1.000000 -0.000107 -0.000021
vn 1.000000 -0.000107 -0.000021
vn 1.000000 -0.000118 -0.000011
vn 1.000000 0.000000 0.000000
vn 1.000000 0.000000 0.000000
vn 1.000000 0.000000 0.000000
vn 1.000000 0.000000 0.000000
vn 1.000000 0.000000 0.000000
vn 1.000000 0.000000 0.000000
vn 1.000000 -0.000235 -0.000021
vn 1.000000 -0.000257 0.000000
vn 1.000000 -0.000128 0.000000
vn 1.000000 -0.000118 -0.000011
vn 1.000000 -0.000118 -0.000011
vn 1.000000 -0.000128 0.000000
vn 1.000000 -0.000000 0.000000
vn 1.000000 0.000000 0.000000
vn 1.000000 0.000000 0.000000
vn 1.000000 -0.000000 0.000000
vn 1.000000 -0.000000 0.000000
vn 1.000000 0.000000 0.000000
vn 1.000000 -0.000257 0.000000
vn 1.000000 -0.000257 0.000000
vn 1.000000 -0.000129 0.000000
vn 1.000000 -0.000128 0.000000
vn 1.000000 -0.000128 0.000000
vn 1.000000 -0.000129 0.000000
vn 1.000000 -0.000000 0.000000
vn 1.000000 -0.000000 0.000000
vn 1.000000 -0.000000 0.000000
vn 1.000000 -0.000000 0.000000
vn 1.000000 -0.000000 0.000000
vn 1.000000 -0.000000 0.000000
vn -0.000363 0.000363 -1.000000
vn -0.000182 0.000454 -1.000000
vn -0.000227 0.000227 -1.000000
vn -0.000454 0.000182 -1.000000
vn -0.000454 0.000182 -1.000000
vn -0.000227 0.000227 -1.000000
vn -0.000227 -0.000227 -1.000000
vn -0.000454 -0.000182 -1.000000
vn -0.000454 -0.000182 -1.000000
vn -0.000227 -0.000227 -1.000000
vn -0.000182 -0.000454 -1.000000
vn -0.000363 -0.000363 -1.000000
vn -0.000182 0.000454 -1.000000
vn 0.000182 0.000454 -1.000000
vn 0.000227 0.000227 -1.000000
vn -0.000227 0.000227 -1.000000
vn -0.000227 0.000227 -1.000000
vn 0.000227 0.000227 -1.000000
vn 0.000227 -0.000227 -1.000000
vn -0.000227 -0.000227 -1.000000
vn -0.000227 -0.000227 -1.000000
vn 0.000227 -0.000227 -1.000000
vn 0.000182 -0.000454 -1.000000
vn -0.000182 -0.000454 -1.000000
vn 0.000182 0.000454 -1.000000
vn 0.000363 0.000363 -1.000000
vn 0.000454 0.000182 -1.000000
vn 0.000227 0.000227 -1.000000
vn 0.000227 0.000227 -1.000000
vn 0.000454 0.000182 -1.000000
vn 0.000454 -0.000182 -1.000000
vn 0.000227 -0.000227 -1.000000
vn 0.000227 -0.000227 -1.000000
vn 0.000454 -0.000182 -1.000000
vn 0.000363 -0.000363 -1.000000
vn 0.000182 -0.000454 -1.000000
vn 0.000989 1.000000 0.000000
vn 0.000989 1.000000 0.000000
vn 0.000494 1.000000 0.000000
vn 0.000494 1.000000 0.000000
vn 0.000494 1.000000 0.000000
vn 0.000494 1.000000 0.000000
vn -0.000494 1.000000 0.000000
vn -0.000494 1.000000 0.000000
vn -0.000494 1.000000 0.000000
vn -0.000494 1.000000 0.000000
vn -0.000988 1.000000 0.000000
vn -0.000988 1.000000 0.000000
vn 0.000989 1.000000 0.000000
vn 0.000824 1.000000 -0.000329
vn 0.000412 1.000000 -0.000412
vn 0.000494 1.000000 0.000000
vn 0.000494 1.000000 0.000000
vn 0.000412 1.000000 -0.000412
vn -0.000412 1.000000 -0.000412
vn -0.000494 1.000000 0.000000
vn -0.000494 1.000000 0.000000
vn -0.000412 1.000000 -0.000412
vn -0.000823 1.000000 -0.000329
vn -0.000988 1.000000 0.000000
vn 0.000824 1.000000 -0.000329
vn 0.000659 1.000000 -0.000659
vn 0.000329 1.000000 -0.000823
vn 0.000412 1.000000 -0.000412
vn 0.000412 1.000000 -0.000412
vn 0.000329 1.000000 -0.000823
vn -0.000329 1.000000 -0.000823
vn -0.000412 1.000000 -0.000412
vn -0.000412 1.000000 -0.000412
vn -0.000329 1.000000 -0.000823
vn -0.000659 1.000000 -0.000659
vn -0.000823 1.000000 -0.000329
vn 0.000000 1.000000 0.000000
vn 0.000000 1.000000 0.000000
vn 0.000000 1.000000 0.000000
vn 0.000000 1.000000 0.000000
vn 0.000000 1.000000 0.000000
vn 0.000000 1.000000 0.000000
vn 0.000000 1.000000 0.000000
vn 0.000000 1.000000 0.000000
vn 0.000000 1.000000 0.000000
vn 0.000000 1.000000 0.000000
vn 0.000000 1.000000 0.000000
vn 0.000000 1.000000 0.000000
vn 0.000000 1.000000 0.000000
vn 0.000000 1.000000 0.000000
vn 0.000000 1.000000 0.000000
vn 0.000000 1.000000 0.000000
vn 0.000000 1.000000 0.000000
vn 0.000000 1.000000 0.000000
vn 0.000000 1.000000 0.000000
vn 0.000000 1.000000 0.000000
vn 0.000000 1.000000 0.000000
vn 0.000000 1.000000 0.000000
vn 0.000000 1.000000 0.000000
vn 0.000000 1.000000 0.000000
vn 0.000000 1.000000 0.000000
vn 0.000000 1.000000 0.000000
vn 0.000000 1.000000 0.000000
vn 0.000000 1.000000 0.000000
vn 0.000000 1.000000 0.000000
vn 0.000000 1.000000 0.000000
vn 0.000000 1.000000 0.000000
vn 0.000000 1.000000 0.000000
vn 0.000000 1.000000 0.000000
vn 0.000000 1.000000 0.000000
vn 0.000000 1.000000 0.000000
vn 0.000000 1.000000 0.000000
vn 1.000000 -0.000257 0.000000
vn 1.000000 -0.000128 0.000000
vn 1.000000 -0.000128 0.000000
vn 1.000000 -0.000257 0.000000
vn 1.000000 -0.000128 0.000000
vn 1.000000 0.000000 0.000000
vn 1.000000 0.000000 0.000000
vn 1.000000 -0.000128 0.000000
vn 1.000000 0.000000 0.000000
vn 1.000000 0.000000 0.000000
vn 1.000000 0.000000 0.000000
vn 1.000000 0.000000 0.000000
vn 1.000000 -0.000257 0.000000
vn 1.000000 -0.000128 0.000000
vn 1.000000 -0.000118 -0.000011
vn 1.000000 -0.000235 -0.000021
vn 1.000000 -0.000128 0.000000
vn 1.000000 0.000000 0.000000
vn 1.000000 0.000000 0.000000
vn 1.000000 -0.000118 -0.000011
vn 1.000000 0.000000 0.000000
vn 1.000000 0.000000 0.000000
vn 1.000000 0.000000 0.000000
vn 1.000000 0.000000 0.000000
vn 1.000000 -0.000235 -0.000021
vn 1.000000 -0.000118 -0.000011
vn 1.000000 -0.000107 -0.000021
vn 1.000000 -0.000214 -0.000043
vn 1.000000 -0.000118 -0.000011
vn 1.000000 0.000000 0.000000
vn 1.000000 0.000000 0.000000
vn 1.000000 -0.000107 -0.000021
vn 1.000000 0.000000 0.000000
vn 1.000000 0.000000 0.000000
vn 1.000000 0.000000 0.000000
vn 1.000000 0.000000 0.000000
vn -1.000000 0.000214 0.000043
vn -1.000000 0.000107 0.000021
vn -1.000000 0.000118 0.000011
vn -1.000000 0.000235 0.000021
vn -1.000000 0.000107 0.000021
vn -1.000000 0.000000 -0.000000
vn -1.000000 0.000000 -0.000000
vn -1.000000 0.000118 0.000011
vn -1.000000 0.000000 -0.000000
vn -1.000000 0.000000 -0.000000
vn -1.000000 0.000000 -0.000000
vn -1.000000 0.000000 -0.000000
vn -1.000000 0.000235 0.000021
vn -1.000000 0.000118 0.000011
vn -1.000000 0.000128 -0.000000
vn -1.000000 0.000257 -0.000000
vn -1.000000 0.000118 0.000011
vn -1.000000 0.000000 -0.000000
vn -1.000000 0.000000 -0.000000
vn -1.000000 0.000128 -0.000000
vn -1.000000 0.000000 -0.000000
vn -1.000000 0.000000 -0.000000
vn -1.000000 0.000000 -0.000000
vn -1.000000 0.000000 -0.000000
vn -1.000000 0.000257 -0.000000
vn -1.000000 0.000128 -0.000000
vn -1.000000 0.000128 -0.000000
vn -1.000000 0.000257 -0.000000
vn -1.000000 0.000128 -0.000000
vn -1.000000 0.000000 -0.000000
vn -1.000000 0.000000 -0.000000
vn -1.000000 0.000128 -0.000000
vn -1.000000 0.000000 -0.000000
vn -1.000000 0.000000 -0.000000
vn -1.000000 0.000000 -0.000000
vn -1.000000 0.000000 -0.000000
vn 0.000363 -0.000363 1.000000
vn 0.000454 -0.000182 1.000000
vn 0.000227 -0.000227 1.000000
vn 0.000182 -0.000454 1.000000
vn 0.000454 -0.000182 1.000000
vn 0.000454 0.000182 1.000000
vn 0.000227 0.000227 1.000000
vn 0.000227 -0.000227 1.000000
vn 0.000454 0.000182 1.000000
vn 0.000363 0.000363 1.000000
vn 0.000182 0.000454 1.000000
vn 0.000227 0.000227 1.000000
vn 0.000182 -0.000454 1.000000
vn 0.000227 -0.000227 1.000000
vn -0.000227 -0.000227 1.000000
vn -0.000182 -0.000454 1.000000
vn 0.000227 -0.000227 1.000000
vn 0.000227 0.000227 1.000000
vn -0.000227 0.000227 1.000000
vn -0.000227 -0.000227 1.000000
vn 0.000227 0.000227 1.000000
vn 0.000182 0.000454 1.000000
vn -0.000182 0.000454 1.000000
vn -0.000227 0.000227 1.000000
vn -0.000182 -0.000454 1.000000
vn -0.000227 -0.000227 1.000000
vn -0.000454 -0.000182 1.000000
vn -0.000364 -0.000363 1.000000
vn -0.000227 -0.000227 1.000000
vn -0.000227 0.000227 1.000000
vn -0.000454 0.000182 1.000000
vn -0.000454 -0.000182 1.000000
vn -0.000227 0.000227 1.000000
vn -0.000182 0.000454 1.000000
vn -0.000363 0.000363 1.000000
vn -0.000454 0.000182 1.000000
vn -0.000989 -1.000000 0.000000
vn -0.000494 -1.000000 0.000000
vn -0.000494 -1.000000 0.000000
vn -0.000989 -1.000000 0.000000
vn -0.000494 -1.000000 0.000000
vn 0.000494 -1.000000 0.000000
vn 0.000494 -1.000000 0.000000
vn -0.000494 -1.000000 0.000000
vn 0.000494 -1.000000 0.000000
vn 0.000988 -1.000000 0.000000
vn 0.000988 -1.000000 0.000000
vn 0.000494 -1.000000 0.000000
vn -0.000989 -1.000000 0.000000
vn -0.000494 -1.000000 0.000000
vn -0.000412 -1.000000 0.000412
vn -0.000824 -1.000000 0.000329
vn -0.000494 -1.000000 0.000000
vn 0.000494 -1.000000 0.000000
vn 0.000412 -1.000000 0.000412
vn -0.000412 -1.000000 0.000412
vn 0.000494 -1.000000 0.000000
vn 0.000988 -1.000000 0.000000
vn 0.000823 -1.000000 0.000329
vn 0.000412 -1.000000 0.000412
vn -0.000824 -1.000000 0.000329
vn -0.000412 -1.000000 0.000412
vn -0.000329 -1.000000 0.000823
vn -0.000659 -1.000000 0.000658
vn -0.000412 -1.000000 0.000412
vn 0.000412 -1.000000 0.000412
vn 0.000329 -1.000000 0.000823
vn -0.000329 -1.000000 0.000823
vn 0.000412 -1.000000 0.000412
vn 0.000823 -1.000000 0.000329
vn 0.000659 -1.000000 0.000658
vn 0.000329 -1.000000 0.000823
vn 0.000000 0.707002 0.707212
vn 0.000000 0.707002 0.707212
vn 0.000000 0.707002 0.707212
vn 0.000000 0.707002 0.707212
vn 0.000000 0.707002 0.707211
vn 0.000000 0.707002 0.707211
vn 0.000000 0.707002 0.707211
vn 0.000000 0.707002 0.707211
vn 0.000000 0.707002 0.707211
vn 0.000000 0.707002 0.707211
vn 0.000000 0.707002 0.707211
vn 0.000000 0.707002 0.707211
vn 0.707175 -0.000181 0.707039
vn 0.707175 -0.000181 0.707039
vn 0.707175 -0.000181 0.707039
vn 0.707175 -0.000181 0.707039
vn 0.707205 0.000000 0.707009
vn 0.707205 0.000000 0.707009
vn 0.707205 0.000000 0.707009
vn 0.707205 0.000000 0.707009
vn 0.707205 0.000000 0.707009
vn 0.707205 0.000000 0.707009
vn 0.707205 0.000000 0.707009
vn 0.707205 0.000000 0.707009
vn -0.707296 0.000182 0.706918
vn -0.707296 0.000182 0.706918
vn -0.707296 0.000182 0.706918
vn -0.707296 0.000182 0.706918
vn -0.707266 0.000000 0.706948
vn -0.707266 0.000000 0.706948
vn -0.707266 0.000000 0.706948
vn -0.707266 0.000000 0.706948
vn -0.707266 0.000000 0.706948
vn -0.707266 0.000000 0.706948
vn -0.707266 0.000000 0.706948
vn -0.707266 0.000000 0.706948
vn -0.000699 -0.706885 0.707328
vn -0.000699 -0.706885 0.707328
vn -0.000699 -0.706886 0.707328
vn -0.000699 -0.706885 0.707328
vn 0.000000 -0.707002 0.707211
vn 0.000000 -0.707002 0.707211
vn 0.000000 -0.707002 0.707211
vn 0.000000 -0.707002 0.707211
vn 0.000699 -0.706886 0.707328
vn 0.000699 -0.706886 0.707328
vn 0.000699 -0.706886 0.707328
vn 0.000699 -0.706886 0.707328
s off
g smallRoom:pPlane6
usemtl smallRoom:phong1SG
f 53/1/1 56/2/2 55/3/3 54/4/4
f 54/4/5 55/3/6 58/5/7 57/6/8
f 57/6/9 58/5/10 60/7/11 59/8/12
f 56/2/13 62/9/14 61/10/15 55/3/16
f 55/3/17 61/10/18 63/11/19 58/5/20
f 58/5/21 63/11/22 64/12/23 60/7/24
f 62/9/25 66/13/26 65/14/27 61/10/28
f 61/10/29 65/14/30 67/15/31 63/11/32
f 63/11/33 67/15/34 68/16/35 64/12/36
f 69/17/37 72/18/38 71/19/39 70/20/40
f 70/20/41 71/19/42 74/21/43 73/22/44
f 73/22/45 74/21/46 56/23/47 53/24/48
f 72/18/49 76/25/50 75/26/51 71/19/52
f 71/19/53 75/26/54 77/27/55 74/21/56
f 74/21/57 77/27/58 62/28/59 56/23/60
f 76/25/61 79/29/62 78/30/63 75/26/64
f 75/26/65 78/30/66 80/31/67 77/27/68
f 77/27/69 80/31/70 66/32/71 62/28/72
f 81/33/73 84/34/74 83/35/75 82/36/76
f 82/36/77 83/35/78 86/37/79 85/38/80
f 85/38/81 86/37/82 64/39/83 68/40/84
f 84/34/85 88/41/86 87/42/87 83/35/88
f 83/35/89 87/42/90 89/43/91 86/37/92
f 86/37/93 89/43/94 60/44/95 64/39/96
f 88/41/97 91/45/98 90/46/99 87/42/100
f 87/42/101 90/46/102 92/47/103 89/43/104
f 89/43/105 92/47/106 59/48/107 60/44/108
usemtl spegel
f 79/49/109 94/50/110 93/51/111 78/52/112
f 78/52/113 93/51/114 95/53/115 80/54/116
f 80/54/117 95/53/118 65/55/119 66/56/120
f 94/50/121 97/57/122 96/58/123 93/51/124
f 93/51/125 96/58/126 98/59/127 95/53/128
f 95/53/129 98/59/130 67/60/131 65/55/132
f 97/57/133 81/61/134 82/62/135 96/58/136
f 96/58/137 82/62/138 85/63/139 98/59/140
f 98/59/141 85/63/142 68/64/143 67/60/144
usemtl smallRoom:phong1SG
f 91/65/145 88/66/146 100/67/147 99/68/148
f 99/68/149 100/67/150 102/69/151 101/70/152
f 101/70/153 102/69/154 72/71/155 69/72/156
f 88/66/157 84/73/158 103/74/159 100/67/160
f 100/67/161 103/74/162 104/75/163 102/69/164
f 102/69/165 104/75/166 76/76/167 72/71/168
f 84/73/169 81/77/170 97/78/171 103/74/172
f 103/74/173 97/78/174 94/79/175 104/75/176
f 104/75/177 94/79/178 79/80/179 76/76/180
f 1/81/181 2/82/182 6/83/183 5/84/184
f 2/82/185 3/85/186 7/86/187 6/83/188
f 3/85/189 4/87/190 8/88/191 7/86/192
f 5/84/193 6/83/194 10/89/195 9/90/196
f 6/83/197 7/86/198 11/91/199 10/89/200
f 7/86/201 8/88/202 12/92/203 11/91/204
f 9/90/205 10/89/206 14/93/207 13/94/208
f 10/89/209 11/91/210 15/95/211 14/93/212
f 11/91/213 12/92/214 16/96/215 15/95/216
f 17/97/217 18/98/218 21/99/219 20/100/220
f 18/98/221 19/101/222 22/102/223 21/99/224
f 19/101/225 1/103/226 5/104/227 22/102/228
f 20/100/229 21/99/230 24/105/231 23/106/232
f 21/99/233 22/102/234 25/107/235 24/105/236
f 22/102/237 5/104/238 9/108/239 25/107/240
f 23/106/241 24/105/242 27/109/243 26/110/244
f 24/105/245 25/107/246 28/111/247 27/109/248
f 25/107/249 9/108/250 13/112/251 28/111/252
f 29/113/253 30/114/254 33/115/255 32/116/256
f 30/114/257 31/117/258 34/118/259 33/115/260
f 31/117/261 16/119/262 12/120/263 34/118/264
f 32/116/265 33/115/266 36/121/267 35/122/268
f 33/115/269 34/118/270 37/123/271 36/121/272
f 34/118/273 12/120/274 8/124/275 37/123/276
f 35/122/277 36/121/278 39/125/279 38/126/280
f 36/121/281 37/123/282 40/127/283 39/125/284
f 37/123/285 8/124/286 4/128/287 40/127/288
f 26/129/289 27/130/290 42/131/291 41/132/292
f 27/130/293 28/133/294 43/134/295 42/131/296
f 28/133/297 13/135/298 14/136/299 43/134/300
f 41/132/301 42/131/302 45/137/303 44/138/304
f 42/131/305 43/134/306 46/139/307 45/137/308
f 43/134/309 14/136/310 15/140/311 46/139/312
f 44/138/313 45/137/314 30/141/315 29/142/316
f 45/137/317 46/139/318 31/143/319 30/141/320
f 46/139/321 15/140/322 16/144/323 31/143/324
f 38/145/325 47/146/326 49/147/327 35/148/328
f 47/146/329 48/149/330 50/150/331 49/147/332
f 48/149/333 17/151/334 20/152/335 50/150/336
f 35/148/337 49/147/338 51/153/339 32/154/340
f 49/147/341 50/150/342 52/155/343 51/153/344
f 50/150/345 20/152/346 23/156/347 52/155/348
f 32/154/349 51/153/350 44/157/351 29/158/352
f 51/153/353 52/155/354 41/159/355 44/157/356
f 52/155/357 23/156/358 26/160/359 41/159/360
f 1/161/361 53/1/362 54/4/363 2/162/364
f 2/162/365 54/4/366 57/6/367 3/163/368
f 3/163/369 57/6/370 59/8/371 4/164/372
f 17/165/373 69/17/374 70/20/375 18/166/376
f 18/166/377 70/20/378 73/22/379 19/167/380
f 19/167/381 73/22/382 53/24/383 1/168/384
f 39/169/385 90/46/386 91/45/387 38/170/388
f 40/171/389 92/47/390 90/46/391 39/169/392
f 4/172/393 59/48/394 92/47/395 40/171/396
f 38/173/397 91/65/398 99/68/399 47/174/400
f 47/174/401 99/68/402 101/70/403 48/175/404
f 48/175/405 101/70/406 69/72/407 17/176/408
