# This file uses centimeters as units for non-parametric coordinates.

mtllib smallRoom.mtl
g default
v -0.500000 -0.500000 0.500000
v -0.166667 -0.500000 0.500000
v 0.166667 -0.500000 0.500000
v 0.500000 -0.500000 0.500000
v -0.500000 -0.500000 0.166667
v -0.166667 -0.500000 0.166667
v 0.166667 -0.500000 0.166667
v 0.500000 -0.500000 0.166667
v -0.500000 -0.500000 -0.166667
v -0.166667 -0.500000 -0.166667
v 0.166667 -0.500000 -0.166667
v 0.500000 -0.500000 -0.166667
v -0.500000 -0.500000 -0.500121
v -0.166667 -0.500000 -0.500182
v 0.166667 -0.500000 -0.500182
v 0.500000 -0.500000 -0.500121
v -0.499914 0.500329 0.500000
v -0.500000 0.166667 0.500000
v -0.500000 -0.166667 0.500000
v -0.499914 0.500329 0.166667
v -0.500000 0.166667 0.166667
v -0.500000 -0.166667 0.166667
v -0.499914 0.500329 -0.166667
v -0.500000 0.166667 -0.166667
v -0.500000 -0.166667 -0.166667
v -0.499943 0.500220 -0.500121
v -0.500000 0.166667 -0.500182
v -0.500000 -0.166667 -0.500182
v 0.500057 0.500220 -0.500121
v 0.500000 0.166667 -0.500182
v 0.500000 -0.166667 -0.500182
v 0.500086 0.500329 -0.166667
v 0.500000 0.166667 -0.166667
v 0.500000 -0.166667 -0.166667
v 0.500086 0.500329 0.166667
v 0.500000 0.166667 0.166667
v 0.500000 -0.166667 0.166667
v 0.500086 0.500329 0.500000
v 0.500000 0.166667 0.500000
v 0.500000 -0.166667 0.500000
v -0.166581 0.500329 -0.500182
v -0.166667 0.166667 -0.500363
v -0.166667 -0.166667 -0.500363
v 0.166752 0.500329 -0.500182
v 0.166667 0.166667 -0.500363
v 0.166667 -0.166667 -0.500363
v 0.166838 0.500659 0.500000
v -0.166495 0.500659 0.500000
v 0.166838 0.500659 0.166667
v -0.166495 0.500659 0.166667
v 0.166838 0.500659 -0.166667
v -0.166495 0.500659 -0.166667
v -0.574571 -0.574613 0.574591
v -0.191528 -0.574613 0.574591
v -0.191528 -0.574613 0.191548
v -0.574571 -0.574613 0.191548
v 0.191515 -0.574613 0.574591
v 0.191515 -0.574613 0.191548
v 0.574558 -0.574613 0.574591
v 0.574558 -0.574613 0.191548
v -0.191528 -0.574613 -0.191494
v -0.574571 -0.574613 -0.191494
v 0.191515 -0.574613 -0.191494
v 0.574558 -0.574613 -0.191494
v -0.191528 -0.574613 -0.574746
v -0.574571 -0.574613 -0.574676
v 0.191515 -0.574613 -0.574746
v 0.574558 -0.574613 -0.574676
v -0.574472 0.574894 0.574591
v -0.574571 0.191472 0.574591
v -0.574571 0.191472 0.191548
v -0.574472 0.574894 0.191548
v -0.574571 -0.191571 0.574591
v -0.574571 -0.191571 0.191548
v -0.574571 0.191472 -0.191494
v -0.574472 0.574894 -0.191494
v -0.574571 -0.191571 -0.191494
v -0.574571 0.191472 -0.574746
v -0.574505 0.574768 -0.574676
v -0.574571 -0.191571 -0.574746
v 0.574623 0.574768 -0.574676
v 0.574558 0.191472 -0.574746
v 0.574558 0.191472 -0.191494
v 0.574656 0.574894 -0.191494
v 0.574558 -0.191571 -0.574746
v 0.574558 -0.191571 -0.191494
v 0.574558 0.191472 0.191549
v 0.574656 0.574894 0.191548
v 0.574558 -0.191571 0.191549
v 0.574558 0.191472 0.574591
v 0.574656 0.574894 0.574591
v 0.574558 -0.191571 0.574591
v -0.191528 0.191472 -0.574955
v -0.191429 0.574894 -0.574746
v -0.191528 -0.191571 -0.574955
v 0.191515 0.191472 -0.574955
v 0.191614 0.574894 -0.574746
v 0.191515 -0.191571 -0.574955
v 0.191712 0.575272 0.574591
v 0.191712 0.575272 0.191548
v -0.191331 0.575272 0.574591
v -0.191331 0.575272 0.191548
v 0.191712 0.575272 -0.191494
v -0.191331 0.575272 -0.191494
vt 0.000000 0.000000
vt 0.333333 0.000000
vt 0.666667 0.000000
vt 1.000000 0.000000
vt 0.000000 0.333333
vt 0.333333 0.333333
vt 0.666667 0.333333
vt 1.000000 0.333333
vt 0.000000 0.666667
vt 0.333333 0.666667
vt 0.666667 0.666667
vt 1.000000 0.666667
vt 0.000000 1.000000
vt 0.333333 1.000000
vt 0.666667 1.000000
vt 1.000000 1.000000
vt 0.000000 0.000000
vt 0.333333 0.000000
vt 0.333333 0.333333
vt 0.000000 0.333333
vt 0.666667 0.000000
vt 0.666667 0.333333
vt 1.000000 0.000000
vt 1.000000 0.333333
vt 0.333333 0.666667
vt 0.000000 0.666667
vt 0.666667 0.666667
vt 1.000000 0.666667
vt 0.333333 1.000000
vt 0.000000 1.000000
vt 0.666667 1.000000
vt 1.000000 1.000000
vt 0.000000 0.000000
vt 0.333333 0.000000
vt 0.333333 0.333333
vt 0.000000 0.333333
vt 0.666667 0.000000
vt 0.666667 0.333333
vt 1.000000 0.000000
vt 1.000000 0.333333
vt 0.333333 0.666667
vt 0.000000 0.666667
vt 0.666667 0.666667
vt 1.000000 0.666667
vt 0.333333 1.000000
vt 0.000000 1.000000
vt 0.666667 1.000000
vt 1.000000 1.000000
vt 0.000000 0.000000
vt 0.333333 0.000000
vt 0.333333 0.333333
vt 0.000000 0.333333
vt 0.666667 0.000000
vt 0.666667 0.333333
vt 1.000000 0.000000
vt 1.000000 0.333333
vt 0.333333 0.666667
vt 0.000000 0.666667
vt 0.666667 0.666667
vt 1.000000 0.666667
vt 0.333333 1.000000
vt 0.000000 1.000000
vt 0.666667 1.000000
vt 1.000000 1.000000
vt 0.000000 0.000000
vt 0.333333 0.000000
vt 0.333333 0.333333
vt 0.000000 0.333333
vt 0.666667 0.000000
vt 0.666667 0.333333
vt 1.000000 0.000000
vt 1.000000 0.333333
vt 0.333333 0.666667
vt 0.000000 0.666667
vt 0.666667 0.666667
vt 1.000000 0.666667
vt 0.333333 1.000000
vt 0.000000 1.000000
vt 0.666667 1.000000
vt 1.000000 1.000000
vt 0.000000 0.000000
vt 0.333333 0.000000
vt 0.333333 0.333333
vt 0.000000 0.333333
vt 0.666667 0.000000
vt 0.666667 0.333333
vt 1.000000 0.000000
vt 1.000000 0.333333
vt 0.333333 0.666667
vt 0.000000 0.666667
vt 0.666667 0.666667
vt 1.000000 0.666667
vt 0.333333 1.000000
vt 0.000000 1.000000
vt 0.666667 1.000000
vt 1.000000 1.000000
vt 0.000000 0.000000
vt 0.333333 0.000000
vt 0.333333 0.333333
vt 0.000000 0.333333
vt 0.666667 0.000000
vt 0.666667 0.333333
vt 1.000000 0.000000
vt 1.000000 0.333333
vt 0.333333 0.666667
vt 0.000000 0.666667
vt 0.666667 0.666667
vt 1.000000 0.666667
vt 0.333333 1.000000
vt 0.000000 1.000000
vt 0.666667 1.000000
vt 1.000000 1.000000
vt 0.000000 0.000000
vt 0.333333 0.000000
vt 0.333333 0.333333
vt 0.000000 0.333333
vt 0.666667 0.000000
vt 0.666667 0.333333
vt 1.000000 0.000000
vt 1.000000 0.333333
vt 0.333333 0.666667
vt 0.000000 0.666667
vt 0.666667 0.666667
vt 1.000000 0.666667
vt 0.333333 1.000000
vt 0.000000 1.000000
vt 0.666667 1.000000
vt 1.000000 1.000000
vt 0.000000 0.000000
vt 0.333333 0.000000
vt 0.333333 0.333333
vt 0.000000 0.333333
vt 0.666667 0.000000
vt 0.666667 0.333333
vt 1.000000 0.000000
vt 1.000000 0.333333
vt 0.333333 0.666667
vt 0.000000 0.666667
vt 0.666667 0.666667
vt 1.000000 0.666667
vt 0.333333 1.000000
vt 0.000000 1.000000
vt 0.666667 1.000000
vt 1.000000 1.000000
vt 0.000000 0.000000
vt 0.333333 0.000000
vt 0.333333 0.333333
vt 0.000000 0.333333
vt 0.666667 0.000000
vt 0.666667 0.333333
vt 1.000000 0.000000
vt 1.000000 0.333333
vt 0.333333 0.666667
vt 0.000000 0.666667
vt 0.666667 0.666667
vt 1.000000 0.666667
vt 0.333333 1.000000
vt 0.000000 1.000000
vt 0.666667 1.000000
vt 1.000000 1.000000
vt 0.000000 0.000000
vt 0.333333 0.000000
vt 0.666667 0.000000
vt 1.000000 0.000000
vt 0.000000 0.000000
vt 0.333333 0.000000
vt 0.666667 0.000000
vt 1.000000 0.000000
vt 0.333333 1.000000
vt 0.000000 1.000000
vt 0.666667 1.000000
vt 1.000000 1.000000
vt 0.000000 0.000000
vt 0.333333 0.000000
vt 0.666667 0.000000
vt 1.000000 0.000000
vn 0.000000 -1.000000 0.000000
vn 0.000000 -1.000000 0.000000
vn 0.000000 -1.000000 0.000000
vn 0.000000 -1.000000 0.000000
vn 0.000000 -1.000000 -0.000000
vn 0.000000 -1.000000 0.000000
vn 0.000000 -1.000000 -0.000000
vn 0.000000 -1.000000 0.000000
vn 0.000000 -1.000000 -0.000000
vn 0.000000 -1.000000 -0.000000
vn 0.000000 -1.000000 0.000000
vn 0.000000 -1.000000 -0.000000
vn 0.000000 -1.000000 -0.000000
vn 0.000000 -1.000000 0.000000
vn 0.000000 -1.000000 0.000000
vn 0.000000 -1.000000 0.000000
vn -1.000000 0.000257 0.000000
vn -1.000000 0.000257 0.000000
vn -1.000000 0.000128 0.000000
vn -1.000000 0.000128 0.000000
vn -1.000000 0.000000 0.000000
vn -1.000000 0.000000 0.000000
vn -1.000000 0.000000 0.000000
vn -1.000000 0.000000 0.000000
vn -1.000000 0.000235 0.000021
vn -1.000000 0.000118 0.000011
vn -1.000000 0.000000 -0.000000
vn -1.000000 0.000000 -0.000000
vn -1.000000 0.000214 0.000043
vn -1.000000 0.000107 0.000021
vn -1.000000 0.000000 -0.000000
vn -1.000000 0.000000 -0.000000
vn 1.000000 -0.000214 -0.000043
vn 1.000000 -0.000235 -0.000021
vn 1.000000 -0.000118 -0.000011
vn 1.000000 -0.000107 -0.000021
vn 1.000000 0.000000 0.000000
vn 1.000000 0.000000 0.000000
vn 1.000000 0.000000 0.000000
vn 1.000000 0.000000 0.000000
vn 1.000000 -0.000257 0.000000
vn 1.000000 -0.000128 0.000000
vn 1.000000 -0.000000 0.000000
vn 1.000000 -0.000000 0.000000
vn 1.000000 -0.000257 0.000000
vn 1.000000 -0.000129 0.000000
vn 1.000000 -0.000000 0.000000
vn 1.000000 -0.000000 0.000000
vn -0.000363 0.000363 -1.000000
vn -0.000182 0.000454 -1.000000
vn -0.000227 0.000227 -1.000000
vn -0.000454 0.000182 -1.000000
vn -0.000227 -0.000227 -1.000000
vn -0.000454 -0.000182 -1.000000
vn -0.000182 -0.000454 -1.000000
vn -0.000363 -0.000363 -1.000000
vn 0.000182 0.000454 -1.000000
vn 0.000227 0.000227 -1.000000
vn 0.000227 -0.000227 -1.000000
vn 0.000182 -0.000454 -1.000000
vn 0.000363 0.000363 -1.000000
vn 0.000454 0.000182 -1.000000
vn 0.000454 -0.000182 -1.000000
vn 0.000363 -0.000363 -1.000000
vn 0.000989 1.000000 0.000000
vn 0.000989 1.000000 0.000000
vn 0.000494 1.000000 0.000000
vn 0.000494 1.000000 0.000000
vn -0.000494 1.000000 0.000000
vn -0.000494 1.000000 0.000000
vn -0.000988 1.000000 0.000000
vn -0.000988 1.000000 0.000000
vn 0.000824 1.000000 -0.000329
vn 0.000412 1.000000 -0.000412
vn -0.000412 1.000000 -0.000412
vn -0.000823 1.000000 -0.000329
vn 0.000659 1.000000 -0.000659
vn 0.000329 1.000000 -0.000823
vn -0.000329 1.000000 -0.000823
vn -0.000659 1.000000 -0.000659
vn 0.000000 1.000000 0.000000
vn 0.000000 1.000000 0.000000
vn 0.000000 1.000000 0.000000
vn 0.000000 1.000000 0.000000
vn 0.000000 1.000000 0.000000
vn 0.000000 1.000000 0.000000
vn 0.000000 1.000000 0.000000
vn 0.000000 1.000000 0.000000
vn 0.000000 1.000000 -0.000000
vn 0.000000 1.000000 -0.000000
vn 0.000000 1.000000 0.000000
vn 0.000000 1.000000 -0.000000
vn 0.000000 1.000000 -0.000000
vn 0.000000 1.000000 -0.000000
vn 0.000000 1.000000 0.000000
vn 0.000000 1.000000 -0.000000
vn 1.000000 -0.000257 0.000000
vn 1.000000 -0.000128 0.000000
vn 1.000000 -0.000128 0.000000
vn 1.000000 -0.000257 0.000000
vn 1.000000 0.000000 0.000000
vn 1.000000 0.000000 0.000000
vn 1.000000 0.000000 0.000000
vn 1.000000 0.000000 0.000000
vn 1.000000 -0.000118 -0.000011
vn 1.000000 -0.000235 -0.000021
vn 1.000000 0.000000 0.000000
vn 1.000000 0.000000 0.000000
vn 1.000000 -0.000107 -0.000021
vn 1.000000 -0.000214 -0.000043
vn 1.000000 0.000000 0.000000
vn 1.000000 0.000000 0.000000
vn -1.000000 0.000214 0.000043
vn -1.000000 0.000107 0.000021
vn -1.000000 0.000118 0.000011
vn -1.000000 0.000235 0.000021
vn -1.000000 0.000000 -0.000000
vn -1.000000 0.000000 -0.000000
vn -1.000000 0.000000 -0.000000
vn -1.000000 0.000000 -0.000000
vn -1.000000 0.000128 -0.000000
vn -1.000000 0.000257 -0.000000
vn -1.000000 0.000000 -0.000000
vn -1.000000 0.000000 -0.000000
vn -1.000000 0.000128 -0.000000
vn -1.000000 0.000257 -0.000000
vn -1.000000 0.000000 -0.000000
vn -1.000000 0.000000 -0.000000
vn 0.000363 -0.000363 1.000000
vn 0.000454 -0.000182 1.000000
vn 0.000227 -0.000227 1.000000
vn 0.000182 -0.000454 1.000000
vn 0.000454 0.000182 1.000000
vn 0.000227 0.000227 1.000000
vn 0.000363 0.000363 1.000000
vn 0.000182 0.000454 1.000000
vn -0.000227 -0.000227 1.000000
vn -0.000182 -0.000454 1.000000
vn -0.000227 0.000227 1.000000
vn -0.000182 0.000454 1.000000
vn -0.000454 -0.000182 1.000000
vn -0.000364 -0.000363 1.000000
vn -0.000454 0.000182 1.000000
vn -0.000363 0.000363 1.000000
vn -0.000989 -1.000000 0.000000
vn -0.000494 -1.000000 0.000000
vn -0.000494 -1.000000 0.000000
vn -0.000989 -1.000000 0.000000
vn 0.000494 -1.000000 0.000000
vn 0.000494 -1.000000 0.000000
vn 0.000988 -1.000000 0.000000
vn 0.000988 -1.000000 0.000000
vn -0.000412 -1.000000 0.000412
vn -0.000824 -1.000000 0.000329
vn 0.000412 -1.000000 0.000412
vn 0.000823 -1.000000 0.000329
vn -0.000329 -1.000000 0.000823
vn -0.000659 -1.000000 0.000658
vn 0.000329 -1.000000 0.000823
vn 0.000659 -1.000000 0.000658
vn 0.000000 0.707002 0.707212
vn 0.000000 0.707002 0.707212
vn 0.000000 0.707002 0.707212
vn 0.000000 0.707002 0.707212
vn 0.000000 0.707002 0.707211
vn 0.000000 0.707002 0.707211
vn 0.000000 0.707002 0.707211
vn 0.000000 0.707002 0.707211
vn 0.000000 0.707002 0.707211
vn 0.000000 0.707002 0.707211
vn 0.000000 0.707002 0.707211
vn 0.000000 0.707002 0.707211
vn 0.707175 -0.000181 0.707039
vn 0.707175 -0.000181 0.707039
vn 0.707175 -0.000181 0.707039
vn 0.707175 -0.000181 0.707039
vn 0.707205 0.000000 0.707009
vn 0.707205 0.000000 0.707009
vn 0.707205 0.000000 0.707009
vn 0.707205 0.000000 0.707009
vn 0.707205 0.000000 0.707009
vn 0.707205 0.000000 0.707009
vn 0.707205 0.000000 0.707009
vn 0.707205 0.000000 0.707009
vn -0.707296 0.000182 0.706918
vn -0.707296 0.000182 0.706918
vn -0.707296 0.000182 0.706918
vn -0.707296 0.000182 0.706918
vn -0.707266 0.000000 0.706948
vn -0.707266 0.000000 0.706948
vn -0.707266 0.000000 0.706948
vn -0.707266 0.000000 0.706948
vn -0.707266 0.000000 0.706948
vn -0.707266 0.000000 0.706948
vn -0.707266 0.000000 0.706948
vn -0.707266 0.000000 0.706948
vn -0.000699 -0.706885 0.707328
vn -0.000699 -0.706885 0.707328
vn -0.000699 -0.706886 0.707328
vn -0.000699 -0.706885 0.707328
vn 0.000000 -0.707002 0.707211
vn 0.000000 -0.707002 0.707211
vn 0.000000 -0.707002 0.707211
vn 0.000000 -0.707002 0.707211
vn 0.000699 -0.706886 0.707328
vn 0.000699 -0.706886 0.707328
vn 0.000699 -0.706886 0.707328
vn 0.000699 -0.706886 0.707328
s 1
g pPlane6
usemtl phong1SG
f 53/161/1 56/5/2 55/6/3 54/162/4
f 54/162/4 55/6/3 58/7/5 57/163/6
f 57/163/6 58/7/5 60/8/7 59/164/8
f 56/5/2 62/9/9 61/10/10 55/6/3
f 55/6/3 61/10/10 63/11/11 58/7/5
f 58/7/5 63/11/11 64/12/12 60/8/7
f 62/9/9 66/13/13 65/14/14 61/10/10
f 61/10/10 65/14/14 67/15/15 63/11/11
f 63/11/11 67/15/15 68/16/16 64/12/12
s 2
f 69/165/17 72/20/18 71/19/19 70/166/20
f 70/166/20 71/19/19 74/22/21 73/167/22
f 73/167/22 74/22/21 56/24/23 53/168/24
f 72/20/18 76/26/25 75/25/26 71/19/19
f 71/19/19 75/25/26 77/27/27 74/22/21
f 74/22/21 77/27/27 62/28/28 56/24/23
f 76/26/25 79/30/29 78/29/30 75/25/26
f 75/25/26 78/29/30 80/31/31 77/27/27
f 77/27/27 80/31/31 66/32/32 62/28/28
s 3
f 81/33/33 84/36/34 83/35/35 82/34/36
f 82/34/36 83/35/35 86/38/37 85/37/38
f 85/37/38 86/38/37 64/40/39 68/39/40
f 84/36/34 88/42/41 87/41/42 83/35/35
f 83/35/35 87/41/42 89/43/43 86/38/37
f 86/38/37 89/43/43 60/44/44 64/40/39
f 88/42/41 91/170/45 90/169/46 87/41/42
f 87/41/42 90/169/46 92/171/47 89/43/43
f 89/43/43 92/171/47 59/172/48 60/44/44
s 4
f 79/49/49 94/52/50 93/51/51 78/50/52
f 78/50/52 93/51/51 95/54/53 80/53/54
f 80/53/54 95/54/53 65/56/55 66/55/56
f 94/52/50 97/58/57 96/57/58 93/51/51
f 93/51/51 96/57/58 98/59/59 95/54/53
f 95/54/53 98/59/59 67/60/60 65/56/55
f 97/58/57 81/62/61 82/61/62 96/57/58
f 96/57/58 82/61/62 85/63/63 98/59/59
f 98/59/59 85/63/63 68/64/64 67/60/60
s 5
f 91/173/65 88/68/66 100/67/67 99/174/68
f 99/174/68 100/67/67 102/70/69 101/175/70
f 101/175/70 102/70/69 72/72/71 69/176/72
f 88/68/66 84/74/73 103/73/74 100/67/67
f 100/67/67 103/73/74 104/75/75 102/70/69
f 102/70/69 104/75/75 76/76/76 72/72/71
f 84/74/73 81/78/77 97/77/78 103/73/74
f 103/73/74 97/77/78 94/79/79 104/75/75
f 104/75/75 94/79/79 79/80/80 76/76/76
s 6
f 1/81/81 2/82/82 6/83/83 5/84/84
f 2/82/82 3/85/85 7/86/86 6/83/83
f 3/85/85 4/87/87 8/88/88 7/86/86
f 5/84/84 6/83/83 10/89/89 9/90/90
f 6/83/83 7/86/86 11/91/91 10/89/89
f 7/86/86 8/88/88 12/92/92 11/91/91
f 9/90/90 10/89/89 14/93/93 13/94/94
f 10/89/89 11/91/91 15/95/95 14/93/93
f 11/91/91 12/92/92 16/96/96 15/95/95
s 7
f 17/97/97 18/98/98 21/99/99 20/100/100
f 18/98/98 19/101/101 22/102/102 21/99/99
f 19/101/101 1/103/103 5/104/104 22/102/102
f 20/100/100 21/99/99 24/105/105 23/106/106
f 21/99/99 22/102/102 25/107/107 24/105/105
f 22/102/102 5/104/104 9/108/108 25/107/107
f 23/106/106 24/105/105 27/109/109 26/110/110
f 24/105/105 25/107/107 28/111/111 27/109/109
f 25/107/107 9/108/108 13/112/112 28/111/111
s 8
f 29/113/113 30/114/114 33/115/115 32/116/116
f 30/114/114 31/117/117 34/118/118 33/115/115
f 31/117/117 16/119/119 12/120/120 34/118/118
f 32/116/116 33/115/115 36/121/121 35/122/122
f 33/115/115 34/118/118 37/123/123 36/121/121
f 34/118/118 12/120/120 8/124/124 37/123/123
f 35/122/122 36/121/121 39/125/125 38/126/126
f 36/121/121 37/123/123 40/127/127 39/125/125
f 37/123/123 8/124/124 4/128/128 40/127/127
s 9
f 26/129/129 27/130/130 42/131/131 41/132/132
f 27/130/130 28/133/133 43/134/134 42/131/131
f 28/133/133 13/135/135 14/136/136 43/134/134
f 41/132/132 42/131/131 45/137/137 44/138/138
f 42/131/131 43/134/134 46/139/139 45/137/137
f 43/134/134 14/136/136 15/140/140 46/139/139
f 44/138/138 45/137/137 30/141/141 29/142/142
f 45/137/137 46/139/139 31/143/143 30/141/141
f 46/139/139 15/140/140 16/144/144 31/143/143
s 10
f 38/145/145 47/146/146 49/147/147 35/148/148
f 47/146/146 48/149/149 50/150/150 49/147/147
f 48/149/149 17/151/151 20/152/152 50/150/150
f 35/148/148 49/147/147 51/153/153 32/154/154
f 49/147/147 50/150/150 52/155/155 51/153/153
f 50/150/150 20/152/152 23/156/156 52/155/155
f 32/154/154 51/153/153 44/157/157 29/158/158
f 51/153/153 52/155/155 41/159/159 44/157/157
f 52/155/155 23/156/156 26/160/160 41/159/159
s off
f 1/1/161 53/161/162 54/162/163 2/2/164
f 2/2/165 54/162/166 57/163/167 3/3/168
f 3/3/169 57/163/170 59/164/171 4/4/172
f 17/17/173 69/165/174 70/166/175 18/18/176
f 18/18/177 70/166/178 73/167/179 19/21/180
f 19/21/181 73/167/182 53/168/183 1/23/184
f 39/45/185 90/169/186 91/170/187 38/46/188
f 40/47/189 92/171/190 90/169/191 39/45/192
f 4/48/193 59/172/194 92/171/195 40/47/196
f 38/65/197 91/173/198 99/174/199 47/66/200
f 47/66/201 99/174/202 101/175/203 48/69/204
f 48/69/205 101/175/206 69/176/207 17/71/208
